<?xml version="1.0" encoding="UTF-8"?>
<svg version="1.1" xmlns="http://www.w3.org/2000/svg" width="569" height="543">
<path d="M0 0 C0.33 0.66 0.66 1.32 1 2 C0.41210693 2.06993164 -0.17578613 2.13986328 -0.78149414 2.21191406 C-32.95361142 6.11460679 -62.02614887 16.00368735 -83.8125 41.25 C-101.50770606 64.17483015 -109.58226606 92.56323615 -106.3125 121.3125 C-101.93353569 150.27406398 -88.63944986 172.63301812 -68 193 C-68.66 193.33 -69.32 193.66 -70 194 C-78.13393825 190.20330414 -85.22009123 184.80979321 -92 179 C-92.82242188 178.32324219 -93.64484375 177.64648438 -94.4921875 176.94921875 C-115.02418979 159.4554411 -126.91768107 133.72781253 -129.82885742 107.18823242 C-131.23348275 89.22866488 -127.12612665 71.01756372 -119 55 C-118.57074219 54.13117188 -118.14148438 53.26234375 -117.69921875 52.3671875 C-114.18451779 45.56515169 -109.94376392 39.82443442 -105 34 C-104.50757812 33.37351562 -104.01515625 32.74703125 -103.5078125 32.1015625 C-80.67279116 3.59003868 -34.81329769 -9.23036698 0 0 Z " fill="#0F0F0F" transform="translate(197,228)"/>
<path d="M0 0 C27.44763113 -0.81745522 51.68391788 9.83394862 71.7109375 28.20703125 C91.5675342 47.36961098 102.97615579 73.19909843 103.74609375 100.76953125 C103.94235413 116.40046059 103.94235413 116.40046059 102.53515625 123.2109375 C101.54515625 123.7059375 101.54515625 123.7059375 100.53515625 124.2109375 C99.60323624 121.41517746 99.24142935 118.88697501 98.94042969 115.97021484 C96.97716624 97.29280047 90.67522266 80.38083854 79.53515625 65.2109375 C78.89578125 64.33566406 78.25640625 63.46039063 77.59765625 62.55859375 C59.95256123 39.47055612 32.8225946 27.14152211 4.53515625 23.2109375 C0.63411752 22.93032541 -3.24217784 22.87679217 -7.15234375 22.8984375 C-8.19745117 22.90262695 -9.24255859 22.90681641 -10.31933594 22.91113281 C-38.14872144 23.31371241 -65.92594126 35.20936519 -85.46484375 55.2109375 C-88.57110105 58.79764195 -91.55249989 62.46551183 -94.46484375 66.2109375 C-95.46484375 63.2109375 -95.46484375 63.2109375 -94.19921875 60.34765625 C-77.50185082 31.32447537 -54.24871226 12.11821585 -21.98046875 2.86376953 C-14.71226585 0.97759188 -7.48161428 0.45547595 0 0 Z " fill="#151515" transform="translate(158.46484375,97.7890625)"/>
<path d="M0 0 C12.07424256 10.14427777 21.19529654 22.10123216 28.01953125 36.296875 C28.57447266 37.4422876 28.57447266 37.4422876 29.140625 38.61083984 C31.6607269 44.11172017 33.0002227 49.51935715 33.95703125 55.484375 C31.10234089 52.76085421 29.32742597 49.90035937 27.33203125 46.484375 C12.72968253 22.31706583 -9.57559323 7.71582012 -36.60546875 0.671875 C-64.24609452 -5.94743306 -93.79069262 -0.07126198 -117.84082031 14.57958984 C-144.11834858 31.24069231 -160.06897132 55.79172668 -168.04296875 85.484375 C-168.37296875 85.484375 -168.70296875 85.484375 -169.04296875 85.484375 C-170.00736748 58.62408451 -162.39529874 33.43550012 -145.04296875 12.484375 C-144.22054687 11.48535156 -143.398125 10.48632812 -142.55078125 9.45703125 C-105.93932325 -33.4793527 -42.40457472 -34.33402663 0 0 Z " fill="#0F0F0F" transform="translate(202.04296875,166.515625)"/>
<path d="M0 0 C1.175625 0.31710938 2.35125 0.63421875 3.5625 0.9609375 C17.91918186 5.24969204 33.21439312 12.37070626 44 23 C44.33 23.66 44.66 24.32 45 25 C41.1594525 23.77078954 37.42486436 22.3883273 33.70043945 20.84277344 C6.85550321 9.74793104 -22.94941563 8.88547415 -50.06640625 19.98046875 C-63.79449696 26.00873127 -75.79920549 33.94705067 -86 45 C-86.825 45.78375 -87.65 46.5675 -88.5 47.375 C-108.89143668 68.78600851 -116.97335332 95.50947253 -116.29296875 124.60546875 C-115.89443573 134.05423268 -114.39873578 143.37415327 -111.25 152.3125 C-110.02151188 155.93653994 -109.89764409 156.6258971 -111 160 C-127.94590506 137.65375157 -131.7602934 107.51106564 -128.5390625 80.30078125 C-125.38911719 61.67904571 -117.32428332 42.73328144 -104.04296875 29.11328125 C-101.94107888 27.0231668 -101.94107888 27.0231668 -100.1484375 24.55859375 C-77.63253954 -2.25579382 -31.90448357 -9.25531009 0 0 Z " fill="#131414" transform="translate(168,192)"/>
<path d="M0 0 C1.39150769 1.16811284 2.76571237 2.3570464 4.125 3.5625 C5.01574219 4.32304688 5.90648437 5.08359375 6.82421875 5.8671875 C27.04896283 23.58108341 39.66024484 47.7582876 42.125 74.5625 C43.78353363 101.30635472 34.41893476 127.57227829 17.36328125 148.0390625 C5.78985248 161.08694206 -8.33398966 174.16568792 -24.875 180.5625 C-27.23828125 180.234375 -27.23828125 180.234375 -28.875 179.5625 C-28.14796875 179.05203125 -27.4209375 178.5415625 -26.671875 178.015625 C-1.95940807 160.14661045 13.44359222 135.92765059 18.375 105.625 C21.84826111 77.46342342 14.95504079 47.80904265 -2.0390625 24.85546875 C-21.21515182 0.9057572 -45.55235975 -13.55900628 -75.8984375 -17.9453125 C-76.87683594 -18.18894531 -76.87683594 -18.18894531 -77.875 -18.4375 C-78.205 -19.0975 -78.535 -19.7575 -78.875 -20.4375 C-52.90548974 -26.20850228 -20.80481801 -15.66828212 0 0 Z " fill="#151515" transform="translate(315.875,71.4375)"/>
<path d="M0 0 C23.88347217 0.8684899 47.01745732 16.90079371 62.890625 33.5546875 C79.57586901 51.69037504 89.55476596 76.71387402 89.2109375 101.50390625 C87.64526474 127.45348254 79.73145231 150.59752077 62 170 C61.29230469 170.77730469 60.58460938 171.55460938 59.85546875 172.35546875 C43.26724499 189.72079848 18.73515924 203.55740094 -5.6484375 205.17578125 C-7.43322899 205.18517489 -9.21838781 205.10689673 -11 205 C-8.43612315 202.43612315 -5.5795205 201.60852592 -2.25 200.375 C23.18948268 190.53122676 44.72405174 171.08738566 56 146 C57.40288434 142.4938273 58.66477945 138.95188113 59.875 135.375 C60.16141357 134.52873047 60.44782715 133.68246094 60.74291992 132.81054688 C69.8820019 104.24713637 65.62932937 74.76414251 52.3125 48.4375 C40.12826551 27.01115588 21.71186306 12.76492372 0 2 C0 1.34 0 0.68 0 0 Z " fill="#131314" transform="translate(320,56)"/>
<path d="M0 0 C19.58741291 17.09572787 32.92489158 42.00350287 35 68 C36.67367007 97.30272349 28.6655704 123.58405332 11 147 C10.34 146.67 9.68 146.34 9 146 C9.45890625 145.05382812 9.9178125 144.10765625 10.390625 143.1328125 C22.81704079 116.67165735 24.51784648 86.93222711 14.85400391 59.20849609 C10.89246041 48.96374983 5.2670561 39.23493912 -2 31 C-2.65226563 30.21753906 -3.30453125 29.43507812 -3.9765625 28.62890625 C-22.15362714 7.44436365 -47.97550494 -6.61965259 -76 -9 C-94.81820624 -10.00571892 -111.36141186 -7.43507546 -129 -1 C-129.99 -0.67 -130.98 -0.34 -132 0 C-129.40654775 -7.0730516 -119.92840804 -10.60876296 -113.47265625 -13.67578125 C-74.81424993 -29.91986729 -32.89671946 -27.68879553 0 0 Z " fill="#131414" transform="translate(265,98)"/>
<path d="M0 0 C-1 2 -1 2 -4.32421875 3.2265625 C-5.77802616 3.69463738 -7.23250113 4.16064199 -8.6875 4.625 C-21.24846281 8.86004295 -32.05773954 15.14173387 -42 24 C-42.74636719 24.66386719 -43.49273437 25.32773437 -44.26171875 26.01171875 C-58.7724211 39.71205029 -68.18193422 57.75309511 -73 77 C-73.33644531 78.32837891 -73.33644531 78.32837891 -73.6796875 79.68359375 C-78.88991497 103.70060119 -72.10741354 130.60876617 -59 151 C-56.1739219 154.83572871 -53.14644542 158.42588239 -50 162 C-49.21625 163.03125 -48.4325 164.0625 -47.625 165.125 C-39.13962342 174.41850768 -28.20932774 181.39533613 -17 187 C-17 187.66 -17 188.32 -17 189 C-38.9216564 186.41788182 -61.34908095 171.46892589 -74.921875 154.61328125 C-83.7592259 142.88152667 -90.10183825 131.14070013 -94 117 C-94.36931641 115.6696875 -94.36931641 115.6696875 -94.74609375 114.3125 C-100.17025363 90.37138055 -94.27872352 65.10188144 -81.72875977 44.49267578 C-67.20315365 21.85899458 -43.68442419 7.14575418 -17.7109375 1.25390625 C-11.74601725 0.15907912 -6.05647227 -0.20188241 0 0 Z " fill="#121313" transform="translate(210,252)"/>
<path d="M0 0 C3.61993527 0.05562929 4.15694773 0.31993122 7.109375 2.8046875 C7.98081587 3.885187 8.8261472 4.98710968 9.6484375 6.10546875 C10.11266113 6.69416748 10.57688477 7.28286621 11.05517578 7.8894043 C12.4859323 9.71467625 13.88115682 11.56325198 15.2734375 13.41796875 C16.09452193 14.48448602 16.91736159 15.54965493 17.7421875 16.61328125 C18.94865545 18.17620564 20.15508041 19.73921119 21.34960938 21.3112793 C26.33295207 27.86618564 31.5662508 34.21977664 36.78466797 40.58789062 C38.62783093 42.85360883 40.44886499 45.13725311 42.2734375 47.41796875 C42.6034375 31.90796875 42.9334375 16.39796875 43.2734375 0.41796875 C45.5834375 0.41796875 47.8934375 0.41796875 50.2734375 0.41796875 C50.29656571 8.09333502 50.31435503 15.76869771 50.32524967 23.44409084 C50.33047745 27.00774297 50.33757319 30.57137132 50.34887695 34.13500977 C50.36177926 38.22802972 50.36666656 42.32102455 50.37109375 46.4140625 C50.37625504 47.69945419 50.38141632 48.98484589 50.38673401 50.30918884 C50.38680954 51.49033768 50.38688507 52.67148651 50.38696289 53.88842773 C50.3891835 54.93433578 50.39140411 55.98024384 50.39369202 57.05784607 C50.2734375 59.41796875 50.2734375 59.41796875 49.2734375 60.41796875 C46.0390625 60.83203125 46.0390625 60.83203125 42.2734375 60.41796875 C40.1222074 58.54652291 38.69592947 57.02836755 37.0234375 54.79296875 C36.55873047 54.20829834 36.09402344 53.62362793 35.61523438 53.02124023 C34.14851577 51.16785473 32.71151785 49.29361968 31.2734375 47.41796875 C30.35404011 46.25324829 29.43220972 45.09044375 28.5078125 43.9296875 C26.21221991 41.03994153 23.93975201 38.13304062 21.67480469 35.21923828 C19.2576471 32.11230645 16.82817873 29.01506238 14.3984375 25.91796875 C13.95822266 25.354729 13.51800781 24.79148926 13.06445312 24.21118164 C8.36809697 17.4667157 8.36809697 17.4667157 2.2734375 12.41796875 C2.6034375 13.07796875 2.9334375 13.73796875 3.2734375 14.41796875 C3.36790953 15.86287315 3.4013774 17.31202097 3.40283203 18.76000977 C3.40598419 19.65756485 3.40913635 20.55511993 3.41238403 21.47987366 C3.4103598 22.4507341 3.40833557 23.42159454 3.40625 24.421875 C3.40720673 25.41549545 3.40816345 26.40911591 3.40914917 27.43284607 C3.40983036 29.5352281 3.4079803 31.63761223 3.40380859 33.73999023 C3.39845388 36.97058803 3.40375855 40.20104714 3.41015625 43.43164062 C3.40949557 45.47005239 3.40821461 47.50846407 3.40625 49.546875 C3.40827423 50.51975967 3.41029846 51.49264435 3.41238403 52.49501038 C3.40923187 53.3894133 3.40607971 54.28381622 3.40283203 55.20532227 C3.40163864 56.39207298 3.40163864 56.39207298 3.40042114 57.60279846 C3.2734375 59.41796875 3.2734375 59.41796875 2.2734375 60.41796875 C-0.7265625 60.54296875 -0.7265625 60.54296875 -3.7265625 60.41796875 C-5.45723949 58.68729176 -4.85412779 56.35308071 -4.85595703 53.99609375 C-4.85910919 52.83819336 -4.86226135 51.68029297 -4.86550903 50.48730469 C-4.8634848 49.22692383 -4.86146057 47.96654297 -4.859375 46.66796875 C-4.86081009 44.74259277 -4.86081009 44.74259277 -4.86227417 42.77832031 C-4.86375081 40.05793051 -4.86159769 37.3375735 -4.85693359 34.6171875 C-4.85123631 31.12312206 -4.85451549 27.62913342 -4.86050606 24.1350708 C-4.86498004 20.81269722 -4.86185135 17.49034452 -4.859375 14.16796875 C-4.86139923 12.90758789 -4.86342346 11.64720703 -4.86550903 10.34863281 C-4.86235687 9.19073242 -4.85920471 8.03283203 -4.85595703 6.83984375 C-4.85476364 5.30215332 -4.85476364 5.30215332 -4.85354614 3.73339844 C-4.64323319 -0.10146434 -4.02332947 0.45125393 0 0 Z " fill="#282829" transform="translate(336.7265625,317.58203125)"/>
<path d="M0 0 C1.90625 1.36328125 1.90625 1.36328125 2.8125 3.8203125 C2.90625 6.36328125 2.90625 6.36328125 0.90625 9.36328125 C-3.09375 8.02994792 -7.09375 6.69661458 -11.09375 5.36328125 C-19.95025439 4.5570975 -27.88713862 4.65804724 -35.09375 10.36328125 C-41.26104864 17.70122454 -41.71362036 25.04268515 -41.09375 34.36328125 C-39.68593235 40.60423666 -35.62536828 45.69471465 -30.34375 49.17578125 C-21.50665792 52.40471874 -12.7342777 51.81949233 -4.09375 48.36328125 C-3.76375 43.41328125 -3.43375 38.46328125 -3.09375 33.36328125 C-7.98528471 33.40284915 -7.98528471 33.40284915 -12.87670898 33.45336914 C-14.61596717 33.46053038 -16.35520304 33.41352827 -18.09375 33.36328125 C-19.09375 32.36328125 -19.09375 32.36328125 -19.21875 29.86328125 C-19.09375 27.36328125 -19.09375 27.36328125 -18.09375 26.36328125 C-16.47117456 26.26411555 -14.84435169 26.23248348 -13.21875 26.23046875 C-12.23390625 26.22917969 -11.2490625 26.22789062 -10.234375 26.2265625 C-9.19796875 26.23042969 -8.1615625 26.23429687 -7.09375 26.23828125 C-5.53914063 26.23248047 -5.53914063 26.23248047 -3.953125 26.2265625 C-2.96828125 26.22785156 -1.9834375 26.22914063 -0.96875 26.23046875 C-0.05867188 26.23159668 0.85140625 26.23272461 1.7890625 26.23388672 C3.90625 26.36328125 3.90625 26.36328125 4.90625 27.36328125 C4.99362645 29.21697736 5.01323153 31.07395666 5.00390625 32.9296875 C5.00068359 34.05439453 4.99746094 35.17910156 4.99414062 36.33789062 C4.98157227 38.11389648 4.98157227 38.11389648 4.96875 39.92578125 C4.96423828 41.11365234 4.95972656 42.30152344 4.95507812 43.52539062 C4.94324675 46.47140351 4.92676287 49.41731806 4.90625 52.36328125 C3.01432525 53.34997884 1.11753022 54.32734145 -0.78125 55.30078125 C-2.36486328 56.11869141 -2.36486328 56.11869141 -3.98046875 56.953125 C-11.84846314 60.51692171 -21.81102502 60.68122929 -30.03125 58.11328125 C-38.60813762 54.73261022 -44.58518513 49.12856647 -48.46875 40.80078125 C-51.35599878 32.83051886 -51.37054138 23.9776293 -48.53125 15.98828125 C-44.57048234 7.55433892 -38.62246788 2.03646289 -30.09375 -1.63671875 C-20.94134403 -4.79551373 -8.84362669 -3.23644772 0 0 Z " fill="#262728" transform="translate(269.09375,319.63671875)"/>
<path d="M0 0 C12.54 0 25.08 0 38 0 C38 1.98 38 3.96 38 6 C37 7 37 7 34.22436523 7.11352539 C33.01466064 7.10828857 31.80495605 7.10305176 30.55859375 7.09765625 C29.25341797 7.09443359 27.94824219 7.09121094 26.60351562 7.08789062 C25.2148431 7.07953401 23.82617123 7.07106905 22.4375 7.0625 C21.04492344 7.05748666 19.65234519 7.05292347 18.25976562 7.04882812 C14.83982549 7.03699442 11.4199075 7.01905831 8 7 C8 12.94 8 18.88 8 25 C10.79791016 24.98259766 10.79791016 24.98259766 13.65234375 24.96484375 C16.08072817 24.95546775 18.50911367 24.94636735 20.9375 24.9375 C22.78504883 24.92493164 22.78504883 24.92493164 24.66992188 24.91210938 C25.83974609 24.90888672 27.00957031 24.90566406 28.21484375 24.90234375 C29.84087524 24.89448853 29.84087524 24.89448853 31.49975586 24.88647461 C34 25 34 25 35 26 C35 27.98 35 29.96 35 32 C26.09 32 17.18 32 8 32 C8.33 38.6 8.66 45.2 9 52 C23.85 52.495 23.85 52.495 39 53 C39 55.31 39 57.62 39 60 C33.60653012 60.02464849 28.21309275 60.04283531 22.81958008 60.05493164 C20.98331125 60.05997231 19.14704646 60.06680477 17.31079102 60.07543945 C14.67723599 60.08751672 12.04373384 60.09323081 9.41015625 60.09765625 C8.17109276 60.10539818 8.17109276 60.10539818 6.90699768 60.11329651 C4.93763632 60.11349205 2.96838386 60.06204152 1 60 C0 59 0 59 -0.12025452 56.63987732 C-0.11803391 55.59396927 -0.11581329 54.54806122 -0.11352539 53.47045898 C-0.11344986 52.28931015 -0.11337433 51.10816132 -0.11329651 49.89122009 C-0.10813522 48.6058284 -0.10297394 47.32043671 -0.09765625 45.99609375 C-0.0962413 44.68794205 -0.09482635 43.37979034 -0.09336853 42.03199768 C-0.0895441 38.54837141 -0.07971446 35.06478661 -0.06866455 31.58117676 C-0.05844882 28.02873302 -0.05381586 24.47628241 -0.04882812 20.92382812 C-0.03862232 13.94918209 -0.01905064 6.97465003 0 0 Z " fill="#060606" transform="translate(284,318)"/>
<path d="M0 0 C3.10232186 -0.43602285 5.90878036 -0.57242445 9 0 C11.54540688 1.94428571 13.06662572 4.36452401 14.75 7.0625 C15.19214844 7.71927734 15.63429688 8.37605469 16.08984375 9.05273438 C16.97220706 10.36592903 17.84287528 11.68706393 18.70117188 13.01611328 C20.70682036 16.07962825 22.85480119 19.03298942 25 22 C29.1122911 18.28599375 32.05602671 13.84161517 35.1875 9.3125 C36.26355181 7.76639013 37.34033561 6.22078936 38.41796875 4.67578125 C38.89000732 3.99427002 39.3620459 3.31275879 39.84838867 2.6105957 C41 1 41 1 42 0 C44.67058851 -0.14115161 47.32432238 -0.04247107 50 0 C49.38293043 3.3134457 48.20666903 5.39231851 46.19921875 8.08203125 C45.63396484 8.84966797 45.06871094 9.61730469 44.48632812 10.40820312 C43.5959082 11.59833008 43.5959082 11.59833008 42.6875 12.8125 C38.77762218 18.06463931 35.11725678 23.23499918 32 29 C32.59425781 29.76441406 33.18851562 30.52882813 33.80078125 31.31640625 C36.04414923 34.21033723 38.27203908 37.11582431 40.49316406 40.02685547 C41.51607467 41.36631813 42.54155607 42.70382069 43.56933594 44.03955078 C45.11957805 46.06004259 46.65498897 48.09103959 48.1875 50.125 C48.92770386 51.08321655 48.92770386 51.08321655 49.68286133 52.06079102 C50.86922513 53.65006278 51.9454811 55.32034715 53 57 C52.67 57.99 52.34 58.98 52 60 C45.67979306 60.56553242 45.67979306 60.56553242 42.69921875 58.0859375 C42.03535156 57.19132812 41.37148438 56.29671875 40.6875 55.375 C39.93726563 54.38628906 39.18703125 53.39757812 38.4140625 52.37890625 C37.60497088 51.25576374 36.80051851 50.129269 36 49 C35.55624023 48.37464355 35.11248047 47.74928711 34.65527344 47.10498047 C34.19926758 46.46061035 33.74326172 45.81624023 33.2734375 45.15234375 C32.82137939 44.51441895 32.36932129 43.87649414 31.90356445 43.21923828 C31.0177657 41.95980114 30.14107677 40.69390149 29.27416992 39.42138672 C28.23072102 37.91326874 27.12091409 36.45146721 26 35 C25.34 35 24.68 35 24 35 C22.68078756 36.48087522 22.68078756 36.48087522 21.390625 38.4375 C20.88273437 39.16839844 20.37484375 39.89929688 19.8515625 40.65234375 C19.05878906 41.81443359 19.05878906 41.81443359 18.25 43 C16.6957551 45.25326459 15.13799494 47.50376634 13.57080078 49.74804688 C12.51092509 51.26752052 11.46263551 52.79513282 10.42529297 54.33007812 C9.91627441 55.05646484 9.40725586 55.78285156 8.8828125 56.53125 C8.43309082 57.18673828 7.98336914 57.84222656 7.52001953 58.51757812 C5.53695945 60.45158725 4.35775989 60.4976107 1.625 60.5 C0.42875 60.335 -0.7675 60.17 -2 60 C-1.38922079 56.87699176 -0.38020509 54.81497646 1.4765625 52.2421875 C1.97978027 51.53868164 2.48299805 50.83517578 3.00146484 50.11035156 C3.53723145 49.37268555 4.07299805 48.63501953 4.625 47.875 C5.16463379 47.11670898 5.70426758 46.35841797 6.26025391 45.57714844 C8.60160489 42.29126323 10.96928193 39.04013168 13.421875 35.8359375 C14.06640625 34.98257813 14.7109375 34.12921875 15.375 33.25 C15.93960937 32.53328125 16.50421875 31.8165625 17.0859375 31.078125 C18.25395149 28.9900881 18.25395149 28.9900881 17.42578125 26.58984375 C15.78130344 23.60275119 13.90299233 21.00747204 11.8125 18.3125 C8.80002441 14.36898422 5.81373817 10.41934306 2.9375 6.375 C2.36902344 5.57835937 1.80054688 4.78171875 1.21484375 3.9609375 C0 2 0 2 0 0 Z " fill="#282829" transform="translate(477,318)"/>
<path d="M0 0 C3.14992981 -0.56034329 5.86373532 -0.70268448 9 0 C11.91117302 2.49079514 13.78932375 5.52084232 15.8125 8.75 C16.89941655 10.39256574 17.98917675 12.03325398 19.08203125 13.671875 C19.83154053 14.8155957 19.83154053 14.8155957 20.59619141 15.98242188 C22.17812091 18.25599847 23.92207279 20.16860653 26 22 C26.56714722 21.21351074 26.56714722 21.21351074 27.14575195 20.41113281 C28.86761352 18.02380858 30.59005109 15.6369005 32.3125 13.25 C32.90740234 12.425 33.50230469 11.6 34.11523438 10.75 C34.69208984 9.95078125 35.26894531 9.1515625 35.86328125 8.328125 C36.39219971 7.5949707 36.92111816 6.86181641 37.46606445 6.10644531 C37.97226318 5.41131836 38.47846191 4.71619141 39 4 C39.51755859 3.25878906 40.03511719 2.51757812 40.56835938 1.75390625 C42 0 42 0 44.04296875 -0.390625 C47.02148438 -0.1953125 47.02148438 -0.1953125 50 0 C49.38345693 3.19384423 48.30524722 5.29707314 46.41796875 7.93359375 C45.89783203 8.66513672 45.37769531 9.39667969 44.84179688 10.15039062 C44.29587891 10.90513672 43.74996094 11.65988281 43.1875 12.4375 C42.65318359 13.18837891 42.11886719 13.93925781 41.56835938 14.71289062 C39.32615756 17.84866364 37.13232992 20.8528964 34.55078125 23.72265625 C32.73515754 25.87020421 32.73515754 25.87020421 33.21655273 28.36743164 C34.07290302 31.24497141 35.17637965 33.01198967 36.984375 35.3984375 C37.59023438 36.20796875 38.19609375 37.0175 38.8203125 37.8515625 C39.45710938 38.68429687 40.09390625 39.51703125 40.75 40.375 C41.99518116 42.02835257 43.23997922 43.68199374 44.484375 45.3359375 C47.01970057 48.70085425 47.01970057 48.70085425 49.56835938 52.05566406 C53 56.66103226 53 56.66103226 53 60 C49.72108925 60.65578215 48.14699978 60.90889977 45 60 C41.42247018 56.7936629 38.74205774 52.91926474 36 49 C34.63648407 47.07220206 33.27213959 45.14500901 31.90576172 43.21923828 C31.01872588 41.96010526 30.14120575 40.69420799 29.27392578 39.42138672 C28.23064708 37.91320987 27.12088449 36.45142888 26 35 C25.34 35 24.68 35 24 35 C22.68078756 36.48087522 22.68078756 36.48087522 21.390625 38.4375 C20.88273437 39.16839844 20.37484375 39.89929688 19.8515625 40.65234375 C19.05878906 41.81443359 19.05878906 41.81443359 18.25 43 C16.17608461 46.00665624 14.09137051 49.00546389 12 52 C11.4745459 52.76892578 10.9490918 53.53785156 10.40771484 54.33007812 C9.89418457 55.05646484 9.3806543 55.78285156 8.8515625 56.53125 C8.39604004 57.18673828 7.94051758 57.84222656 7.47119141 58.51757812 C6 60 6 60 2.125 60.5 C1.09375 60.335 0.0625 60.17 -1 60 C-1 55.75562519 -0.76039758 55.18214688 1.6328125 51.98828125 C2.19226563 51.22966797 2.75171875 50.47105469 3.328125 49.68945312 C3.92109375 48.90505859 4.5140625 48.12066406 5.125 47.3125 C7.42974496 44.21778024 9.72299132 41.11519124 12 38 C12.59522461 37.19224121 13.19044922 36.38448242 13.80371094 35.55224609 C14.3609082 34.76543457 14.91810547 33.97862305 15.4921875 33.16796875 C15.99862793 32.46309326 16.50506836 31.75821777 17.02685547 31.03198242 C18.16429318 29.07994383 18.16429318 29.07994383 17.87939453 27.04223633 C16.74231562 24.40157416 15.22098281 22.41265241 13.4375 20.15625 C12.72335937 19.23972656 12.00921875 18.32320313 11.2734375 17.37890625 C10.52320313 16.42886719 9.77296875 15.47882813 9 14.5 C7.5148366 12.6193034 6.0354029 10.73406401 4.5625 8.84375 C3.90378906 8.01037109 3.24507813 7.17699219 2.56640625 6.31835938 C1.08475234 4.12543769 0.42244296 2.58523191 0 0 Z " fill="#2A2A2B" transform="translate(416,318)"/>
<path d="M0 0 C4.74567805 1.36618004 8.65508108 3.42376831 12.75 6.125 C13.66579834 6.72332642 13.66579834 6.72332642 14.60009766 7.33374023 C31.9027561 18.79544615 45.06460989 33.07724334 54.0625 51.8125 C54.43238037 52.57602783 54.80226074 53.33955566 55.18334961 54.1262207 C57.70376956 59.62709498 59.04317476 65.03487809 60 71 C57.14530964 68.27647921 55.37039472 65.41598437 53.375 62 C38.77265128 37.83269083 16.46737552 23.23144512 -10.5625 16.1875 C-18.01489141 14.40281991 -25.24019278 13.80687946 -32.875 13.8125 C-34.24144653 13.8115332 -34.24144653 13.8115332 -35.63549805 13.81054688 C-44.18855152 13.87603619 -52.5461363 14.75906588 -61 16 C-59.32161883 13.95024696 -58.3663368 13.08169017 -55.74462891 12.49707031 C-54.43631104 12.41344238 -54.43631104 12.41344238 -53.1015625 12.328125 C-51.63058105 12.23241211 -51.63058105 12.23241211 -50.12988281 12.13476562 C-44.87594042 11.90854283 -39.63399278 11.76881151 -34.375 11.75 C-33.23780518 11.74097656 -32.10061035 11.73195312 -30.92895508 11.72265625 C-24.21452958 11.74547341 -18.1880284 12.38495716 -11.6875 14 C-6.39452874 15.28518814 -2.9262433 15.04865901 1.7878418 12.34960938 C4.30682318 10.70009068 6.67947877 8.91695232 9 7 C8.3503125 6.57847656 7.700625 6.15695313 7.03125 5.72265625 C6.1959375 5.17480469 5.360625 4.62695312 4.5 4.0625 C3.6646875 3.51722656 2.829375 2.97195312 1.96875 2.41015625 C0.99421875 1.71212891 0.99421875 1.71212891 0 1 C0 0.67 0 0.34 0 0 Z " fill="#202021" transform="translate(176,151)"/>
<path d="M0 0 C2.7341327 0.02467629 3.98346721 0.25965712 6.2109375 1.88671875 C8.74515904 4.62915098 10.3125 6.37625344 10.3125 10.1875 C9.38138133 12.34071193 8.45205744 14.4487966 7.3125 16.5 C5.6625 15.18 4.0125 13.86 2.3125 12.5 C2.6425 13.16 2.9725 13.82 3.3125 14.5 C3.40697203 15.9449044 3.4404399 17.39405222 3.44189453 18.84204102 C3.44504669 19.7395961 3.44819885 20.63715118 3.45144653 21.56190491 C3.4494223 22.53276535 3.44739807 23.50362579 3.4453125 24.50390625 C3.44626923 25.4975267 3.44722595 26.49114716 3.44821167 27.51487732 C3.44889286 29.61725935 3.4470428 31.71964348 3.44287109 33.82202148 C3.43751638 37.05261928 3.44282105 40.28307839 3.44921875 43.51367188 C3.44855807 45.55208364 3.44727711 47.59049532 3.4453125 49.62890625 C3.44733673 50.60179092 3.44936096 51.5746756 3.45144653 52.57704163 C3.44829437 53.47144455 3.44514221 54.36584747 3.44189453 55.28735352 C3.44070114 56.47410423 3.44070114 56.47410423 3.43948364 57.68482971 C3.3125 59.5 3.3125 59.5 2.3125 60.5 C-0.6875 60.625 -0.6875 60.625 -3.6875 60.5 C-5.41817699 58.76932301 -4.81506529 56.43511196 -4.81689453 54.078125 C-4.82004669 52.92022461 -4.82319885 51.76232422 -4.82644653 50.56933594 C-4.8244223 49.30895508 -4.82239807 48.04857422 -4.8203125 46.75 C-4.82174759 44.82462402 -4.82174759 44.82462402 -4.82321167 42.86035156 C-4.82468831 40.13996176 -4.82253519 37.41960475 -4.81787109 34.69921875 C-4.81217381 31.20515331 -4.81545299 27.71116467 -4.82144356 24.21710205 C-4.82591754 20.89472847 -4.82278885 17.57237577 -4.8203125 14.25 C-4.82233673 12.98961914 -4.82436096 11.72923828 -4.82644653 10.43066406 C-4.82329437 9.27276367 -4.82014221 8.11486328 -4.81689453 6.921875 C-4.81570114 5.38418457 -4.81570114 5.38418457 -4.81448364 3.81542969 C-4.60546447 0.00415764 -3.98645439 0.54053619 0 0 Z " fill="#121313" transform="translate(336.6875,317.5)"/>
<path d="M0 0 C0.58136719 0.37511719 1.16273438 0.75023437 1.76171875 1.13671875 C1.47901167 4.5292037 0.93235626 5.95034433 -1.3984375 8.49609375 C-18.65343319 22.70882237 -42.20251517 35.51886471 -65.23828125 34.13671875 C-62.6744044 31.5728419 -59.81780175 30.74524467 -56.48828125 29.51171875 C-40.75527211 23.42385225 -27.8849474 14.36897147 -16.23828125 2.13671875 C-16.23828125 5.13671875 -16.23828125 5.13671875 -17.23828125 7.13671875 C-12.38773555 5.21671108 -8.35714808 3.00114942 -4.1328125 -0.0703125 C-2.23828125 -0.86328125 -2.23828125 -0.86328125 0 0 Z " fill="#202121" transform="translate(374.23828125,226.86328125)"/>
<path d="M0 0 C2.64 0 5.28 0 8 0 C8.02312821 7.67536627 8.04091753 15.35072896 8.05181217 23.02612209 C8.05703995 26.58977422 8.06413569 30.15340257 8.07543945 33.71704102 C8.08834176 37.81006097 8.09322906 41.9030558 8.09765625 45.99609375 C8.10281754 47.28148544 8.10797882 48.56687714 8.11329651 49.89122009 C8.11337204 51.07236893 8.11344757 52.25351776 8.11352539 53.47045898 C8.115746 54.51636703 8.11796661 55.56227509 8.12025452 56.63987732 C8 59 8 59 7 60 C4 60.125 4 60.125 1 60 C0 59 0 59 -0.12025452 56.63987732 C-0.11803391 55.59396927 -0.11581329 54.54806122 -0.11352539 53.47045898 C-0.11344986 52.28931015 -0.11337433 51.10816132 -0.11329651 49.89122009 C-0.10813522 48.6058284 -0.10297394 47.32043671 -0.09765625 45.99609375 C-0.0962413 44.68794205 -0.09482635 43.37979034 -0.09336853 42.03199768 C-0.0895441 38.54837141 -0.07971446 35.06478661 -0.06866455 31.58117676 C-0.05844882 28.02873292 -0.05387056 24.47628241 -0.04882812 20.92382812 C-0.03809212 13.94920168 -0.0210166 6.97460283 0 0 Z " fill="#0B0B0B" transform="translate(398,318)"/>
<path d="M0 0 C0.98484375 -0.00128906 1.9696875 -0.00257813 2.984375 -0.00390625 C4.02078125 -0.00003906 5.0571875 0.00382812 6.125 0.0078125 C7.67960937 0.00201172 7.67960937 0.00201172 9.265625 -0.00390625 C10.25046875 -0.00261719 11.2353125 -0.00132812 12.25 0 C13.16007812 0.00112793 14.07015625 0.00225586 15.0078125 0.00341797 C17.125 0.1328125 17.125 0.1328125 18.125 1.1328125 C18.21237645 2.98650861 18.23198153 4.84348791 18.22265625 6.69921875 C18.21943359 7.82392578 18.21621094 8.94863281 18.21289062 10.10742188 C18.20032227 11.88342773 18.20032227 11.88342773 18.1875 13.6953125 C18.18298828 14.88318359 18.17847656 16.07105469 18.17382812 17.29492188 C18.16199675 20.24093476 18.14551287 23.18684931 18.125 26.1328125 C16.23307525 27.11951009 14.33628022 28.0968727 12.4375 29.0703125 C11.38175781 29.61558594 10.32601563 30.16085937 9.23828125 30.72265625 C0.67383206 34.60191115 -10.12271691 34.38947597 -18.875 31.1328125 C-14.72840627 29.93481801 -10.88130953 30.2431933 -6.625 30.5703125 C-5.87992188 30.62251953 -5.13484375 30.67472656 -4.3671875 30.72851562 C-2.53605139 30.8576342 -0.70546187 30.99446364 1.125 31.1328125 C1.455 30.1428125 1.785 29.1528125 2.125 28.1328125 C1.135 28.10703125 0.145 28.08125 -0.875 28.0546875 C-8.3680294 27.76550947 -14.3860822 27.23804621 -20.875 23.1328125 C-20.545 22.4728125 -20.215 21.8128125 -19.875 21.1328125 C-19.070625 21.6071875 -18.26625 22.0815625 -17.4375 22.5703125 C-10.54198848 25.59465966 -3.20780194 25.67163043 4.125 24.1328125 C5.775 23.4728125 7.425 22.8128125 9.125 22.1328125 C9.455 17.1828125 9.785 12.2328125 10.125 7.1328125 C5.23346529 7.1723804 5.23346529 7.1723804 0.34204102 7.22290039 C-1.39721717 7.23006163 -3.13645304 7.18305952 -4.875 7.1328125 C-5.875 6.1328125 -5.875 6.1328125 -6 3.6328125 C-5.78106305 -0.7459266 -3.89959856 0.00483307 0 0 Z " fill="#323233" transform="translate(255.875,345.8671875)"/>
<path d="M0 0 C12.54 0 25.08 0 38 0 C38 1.98 38 3.96 38 6 C37 7 37 7 34.22436523 7.11352539 C33.01466064 7.10828857 31.80495605 7.10305176 30.55859375 7.09765625 C29.25341797 7.09443359 27.94824219 7.09121094 26.60351562 7.08789062 C25.2148431 7.07953401 23.82617123 7.07106905 22.4375 7.0625 C21.04492344 7.05748666 19.65234519 7.05292347 18.25976562 7.04882812 C14.83982549 7.03699442 11.4199075 7.01905831 8 7 C8 12.94 8 18.88 8 25 C10.79791016 24.98259766 10.79791016 24.98259766 13.65234375 24.96484375 C16.08072817 24.95546775 18.50911367 24.94636735 20.9375 24.9375 C22.78504883 24.92493164 22.78504883 24.92493164 24.66992188 24.91210938 C25.83974609 24.90888672 27.00957031 24.90566406 28.21484375 24.90234375 C29.84087524 24.89448853 29.84087524 24.89448853 31.49975586 24.88647461 C34 25 34 25 35 26 C35 27.98 35 29.96 35 32 C26.09 32 17.18 32 8 32 C8.33 38.6 8.66 45.2 9 52 C23.85 52.495 23.85 52.495 39 53 C39 55.31 39 57.62 39 60 C33.60653012 60.02464849 28.21309275 60.04283531 22.81958008 60.05493164 C20.98331125 60.05997231 19.14704646 60.06680477 17.31079102 60.07543945 C14.67723599 60.08751672 12.04373384 60.09323081 9.41015625 60.09765625 C8.17109276 60.10539818 8.17109276 60.10539818 6.90699768 60.11329651 C4.93763632 60.11349205 2.96838386 60.06204152 1 60 C0 59 0 59 -0.12025452 56.63987732 C-0.11803391 55.59396927 -0.11581329 54.54806122 -0.11352539 53.47045898 C-0.11344986 52.28931015 -0.11337433 51.10816132 -0.11329651 49.89122009 C-0.10813522 48.6058284 -0.10297394 47.32043671 -0.09765625 45.99609375 C-0.0962413 44.68794205 -0.09482635 43.37979034 -0.09336853 42.03199768 C-0.0895441 38.54837141 -0.07971446 35.06478661 -0.06866455 31.58117676 C-0.05844882 28.02873302 -0.05381586 24.47628241 -0.04882812 20.92382812 C-0.03862232 13.94918209 -0.01905064 6.97465003 0 0 Z M1 1 C1 19.81 1 38.62 1 58 C13.21 58 25.42 58 38 58 C38 56.68 38 55.36 38 54 C27.77 54 17.54 54 7 54 C7.33 46.41 7.66 38.82 8 31 C11.63 30.67 15.26 30.34 19 30 C18.67 28.68 18.34 27.36 18 26 C14.37 26 10.74 26 7 26 C7 19.4 7 12.8 7 6 C16.9 6 26.8 6 37 6 C37 4.35 37 2.7 37 1 C25.12 1 13.24 1 1 1 Z " fill="#78797C" transform="translate(284,318)"/>
<path d="M0 0 C2.34873673 3.04333265 4.42736852 6.2012089 6.5 9.4375 C9.65443002 14.18955261 13.01277862 18.63875801 16.6875 23 C17.13867188 23.53939209 17.58984375 24.07878418 18.0546875 24.63452148 C20.15542295 27.08371104 22.23340965 29.18435741 24.76953125 31.1875 C27 33 27 33 28 36 C12.27893824 31.32991989 -2.63048455 17.15223909 -12 4 C-11.34 3.67 -10.68 3.34 -10 3 C-9.01 4.485 -9.01 4.485 -8 6 C-4.74456771 5.65120368 -3.98126893 4.97866739 -1.75 2.4375 C-1.1725 1.633125 -0.595 0.82875 0 0 Z " fill="#2B2C2D" transform="translate(101,386)"/>
<path d="M0 0 C2.85028181 0 3.96547839 0.20899656 6.17578125 2.0625 C7.6607927 3.82041332 9.0274554 5.59190347 10.3125 7.5 C9.9825 8.16 9.6525 8.82 9.3125 9.5 C8.3225 9.17 7.3325 8.84 6.3125 8.5 C5.879375 7.51 5.44625 6.52 5 5.5 C4.443125 4.51 3.88625 3.52 3.3125 2.5 C0.3425 2.005 0.3425 2.005 -2.6875 1.5 C-2.6875 20.31 -2.6875 39.12 -2.6875 58.5 C-1.0375 58.5 0.6125 58.5 2.3125 58.5 C1.9825 42.33 1.6525 26.16 1.3125 9.5 C2.3025 9.5 3.2925 9.5 4.3125 9.5 C4.9725 11.15 5.6325 12.8 6.3125 14.5 C4.9925 13.84 3.6725 13.18 2.3125 12.5 C2.6425 13.16 2.9725 13.82 3.3125 14.5 C3.40697203 15.9449044 3.4404399 17.39405222 3.44189453 18.84204102 C3.44504669 19.7395961 3.44819885 20.63715118 3.45144653 21.56190491 C3.4494223 22.53276535 3.44739807 23.50362579 3.4453125 24.50390625 C3.44626923 25.4975267 3.44722595 26.49114716 3.44821167 27.51487732 C3.44889286 29.61725935 3.4470428 31.71964348 3.44287109 33.82202148 C3.43751638 37.05261928 3.44282105 40.28307839 3.44921875 43.51367188 C3.44855807 45.55208364 3.44727711 47.59049532 3.4453125 49.62890625 C3.44733673 50.60179092 3.44936096 51.5746756 3.45144653 52.57704163 C3.44829437 53.47144455 3.44514221 54.36584747 3.44189453 55.28735352 C3.44070114 56.47410423 3.44070114 56.47410423 3.43948364 57.68482971 C3.3125 59.5 3.3125 59.5 2.3125 60.5 C-0.6875 60.625 -0.6875 60.625 -3.6875 60.5 C-5.41817699 58.76932301 -4.81506529 56.43511196 -4.81689453 54.078125 C-4.82004669 52.92022461 -4.82319885 51.76232422 -4.82644653 50.56933594 C-4.8244223 49.30895508 -4.82239807 48.04857422 -4.8203125 46.75 C-4.82174759 44.82462402 -4.82174759 44.82462402 -4.82321167 42.86035156 C-4.82468831 40.13996176 -4.82253519 37.41960475 -4.81787109 34.69921875 C-4.81217381 31.20515331 -4.81545299 27.71116467 -4.82144356 24.21710205 C-4.82591754 20.89472847 -4.82278885 17.57237577 -4.8203125 14.25 C-4.82233673 12.98961914 -4.82436096 11.72923828 -4.82644653 10.43066406 C-4.82329437 9.27276367 -4.82014221 8.11486328 -4.81689453 6.921875 C-4.81570114 5.38418457 -4.81570114 5.38418457 -4.81448364 3.81542969 C-4.60546447 0.00415764 -3.98645439 0.54053619 0 0 Z " fill="#77787B" transform="translate(336.6875,317.5)"/>
<path d="M0 0 C1.18851562 0.15855469 2.37703125 0.31710937 3.6015625 0.48046875 C2.98421718 3.65785138 1.91619007 5.77800739 0.0546875 8.4140625 C-0.4609375 9.14560547 -0.9765625 9.87714844 -1.5078125 10.63085938 C-2.04921875 11.38560547 -2.590625 12.14035156 -3.1484375 12.91796875 C-3.674375 13.66884766 -4.2003125 14.41972656 -4.7421875 15.19335938 C-7.68574755 19.33547295 -10.67897947 23.01586247 -14.3984375 26.48046875 C-14.0684375 23.84046875 -13.7384375 21.20046875 -13.3984375 18.48046875 C-15.0484375 19.47046875 -16.6984375 20.46046875 -18.3984375 21.48046875 C-16.74727396 16.43745722 -13.84348504 12.43023078 -10.7734375 8.16796875 C-10.27714844 7.42740234 -9.78085937 6.68683594 -9.26953125 5.92382812 C-6.51304688 2.11875746 -4.89578343 0.00539421 0 0 Z " fill="#3A3A3C" transform="translate(462.3984375,317.51953125)"/>
<path d="M0 0 C9.9 0 19.8 0 30 0 C30 0.33 30 0.66 30 1 C20.43 1 10.86 1 1 1 C1 6.94 1 12.88 1 19 C9.58 19 18.16 19 27 19 C27 20.98 27 22.96 27 25 C18.42 25 9.84 25 1 25 C1 24.67 1 24.34 1 24 C4.63 24 8.26 24 12 24 C11.67 23.01 11.34 22.02 11 21 C7.37 20.67 3.74 20.34 0 20 C0 13.4 0 6.8 0 0 Z " fill="#606163" transform="translate(291,324)"/>
<path d="M0 0 C0 13.53 0 27.06 0 41 C-1.32 41 -2.64 41 -4 41 C-4.07402793 35.48245195 -4.12854366 29.96519144 -4.16479492 24.44726562 C-4.17990325 22.56928474 -4.20039094 20.69133924 -4.22631836 18.81347656 C-4.26261246 16.11774981 -4.27970545 13.42248854 -4.29296875 10.7265625 C-4.30845261 9.88380768 -4.32393646 9.04105286 -4.33988953 8.17276001 C-4.34057617 5.80712891 -4.34057617 5.80712891 -4 2 C-1 0 -1 0 0 0 Z " fill="#010101" transform="translate(338,335)"/>
<path d="M0 0 C0.495 0.99 0.495 0.99 1 2 C0.37544922 2.08040527 -0.24910156 2.16081055 -0.89257812 2.24365234 C-3.76237156 2.61591829 -6.63116666 2.99540882 -9.5 3.375 C-10.97339844 3.56449219 -10.97339844 3.56449219 -12.4765625 3.7578125 C-16.89016625 4.346293 -21.17269597 4.97846317 -25.46875 6.1640625 C-28.83836866 6.96173771 -29.87499732 6.96991713 -33 6 C-29.17010894 4.19769832 -26.21878192 3.80377759 -22 4 C-21.67 2.68 -21.34 1.36 -21 0 C-23.91697011 0.14104691 -26.8334802 0.28764814 -29.75 0.4375 C-30.575 0.47681641 -31.4 0.51613281 -32.25 0.55664062 C-33.04921875 0.59853516 -33.8484375 0.64042969 -34.671875 0.68359375 C-35.4050293 0.72025146 -36.13818359 0.75690918 -36.89355469 0.79467773 C-39.01353055 1.00131887 -40.94251994 1.46298476 -43 2 C-44.41534778 2.06456879 -45.83337689 2.08611039 -47.25 2.0625 C-49.10625 2.0315625 -49.10625 2.0315625 -51 2 C-37.51913959 -5.25892484 -14.48311817 -3.84004115 0 0 Z " fill="#5F6162" transform="translate(197,228)"/>
<path d="M0 0 C3.25891327 -0.83206296 5.76103913 -0.98238753 9 0 C12.6237716 3.6237716 15.41310119 7.58453679 18 12 C18 12.66 18 13.32 18 14 C16.68 14.33 15.36 14.66 14 15 C14 16.65 14 18.3 14 20 C10.37949627 16.6332699 7.59591293 12.88740631 4.75 8.875 C4.29109375 8.24207031 3.8321875 7.60914063 3.359375 6.95703125 C0 2.24790737 0 2.24790737 0 0 Z " fill="#343536" transform="translate(477,318)"/>
<path d="M0 0 C2.64 0 5.28 0 8 0 C8.02312821 7.67536627 8.04091753 15.35072896 8.05181217 23.02612209 C8.05703995 26.58977422 8.06413569 30.15340257 8.07543945 33.71704102 C8.08834176 37.81006097 8.09322906 41.9030558 8.09765625 45.99609375 C8.10281754 47.28148544 8.10797882 48.56687714 8.11329651 49.89122009 C8.11337204 51.07236893 8.11344757 52.25351776 8.11352539 53.47045898 C8.115746 54.51636703 8.11796661 55.56227509 8.12025452 56.63987732 C8 59 8 59 7 60 C4 60.125 4 60.125 1 60 C0 59 0 59 -0.12025452 56.63987732 C-0.11803391 55.59396927 -0.11581329 54.54806122 -0.11352539 53.47045898 C-0.11344986 52.28931015 -0.11337433 51.10816132 -0.11329651 49.89122009 C-0.10813522 48.6058284 -0.10297394 47.32043671 -0.09765625 45.99609375 C-0.0962413 44.68794205 -0.09482635 43.37979034 -0.09336853 42.03199768 C-0.0895441 38.54837141 -0.07971446 35.06478661 -0.06866455 31.58117676 C-0.05844882 28.02873292 -0.05387056 24.47628241 -0.04882812 20.92382812 C-0.03809212 13.94920168 -0.0210166 6.97460283 0 0 Z M1 1 C1 19.81 1 38.62 1 58 C2.65 58 4.3 58 6 58 C6.89087795 51.16582552 7.13308006 44.50841551 7.09765625 37.62109375 C7.0962413 36.56841812 7.09482635 35.51574249 7.09336853 34.4311676 C7.08781296 31.09991501 7.07526888 27.76873196 7.0625 24.4375 C7.05747925 22.1660166 7.05291735 19.89453214 7.04882812 17.62304688 C7.03785812 12.0820079 7.02116483 6.54100892 7 1 C5.02 1 3.04 1 1 1 Z " fill="#848689" transform="translate(398,318)"/>
<path d="M0 0 C0.33 0 0.66 0 1 0 C2.66334431 8.00484451 3.19320544 15.71979315 3.1875 23.875 C3.18814453 24.76598389 3.18878906 25.65696777 3.18945312 26.57495117 C3.14911404 31.46560738 3.00398442 36.20389606 2 41 C1.01 41.495 1.01 41.495 0 42 C-1.13976737 38.58069789 -1.48254443 35.24733254 -1.875 31.6875 C-2.7702328 23.99591402 -4.23204758 16.54326365 -6 9 C-3.43470546 10.28264727 -3.33500137 11.22772349 -2.375 13.875 C-1.98441406 14.92300781 -1.98441406 14.92300781 -1.5859375 15.9921875 C-1 18 -1 18 -1 21 C-0.34 21 0.32 21 1 21 C0.67 14.07 0.34 7.14 0 0 Z " fill="#656668" transform="translate(259,180)"/>
<path d="M0 0 C0.969375 0.474375 1.93875 0.94875 2.9375 1.4375 C11.71447556 5.16374114 20.92131592 4.05002544 30 2 C30 3.65 30 5.3 30 7 C31.32 7.33 32.64 7.66 34 8 C23.81100301 12.59503786 12.71032195 13.98523608 2 10 C6.14659373 8.80200551 9.99369047 9.1103808 14.25 9.4375 C14.99507812 9.48970703 15.74015625 9.54191406 16.5078125 9.59570312 C18.33894861 9.7248217 20.16953813 9.86165114 22 10 C22.33 9.01 22.66 8.02 23 7 C21.515 6.96132813 21.515 6.96132813 20 6.921875 C12.5069706 6.63269697 6.4889178 6.10523371 0 2 C0 1.34 0 0.68 0 0 Z " fill="#5B5C5E" transform="translate(235,367)"/>
<path d="M0 0 C0.66 0.33 1.32 0.66 2 1 C1.01 1.99 0.02 2.98 -1 4 C-0.07445312 3.855625 0.85109375 3.71125 1.8046875 3.5625 C11.1458905 2.22821201 20.37681067 1.78147415 29.8125 1.75 C31.52058838 1.73646484 31.52058838 1.73646484 33.26318359 1.72265625 C34.33777832 1.72652344 35.41237305 1.73039062 36.51953125 1.734375 C37.47964111 1.73663086 38.43975098 1.73888672 39.42895508 1.74121094 C42.07911636 2.00796347 43.72635277 2.6510162 46 4 C45.21052979 3.98428955 44.42105957 3.9685791 43.60766602 3.95239258 C22.77344619 3.59294655 4.73030382 4.80180517 -15 12 C-15.99 12.33 -16.98 12.66 -18 13 C-16.51257289 8.67382312 -13.32342677 7.00329123 -9.5625 4.8125 C-8.97662109 4.45736328 -8.39074219 4.10222656 -7.78710938 3.73632812 C-5.21555883 2.19806803 -2.85151442 0.95050481 0 0 Z " fill="#67696B" transform="translate(151,85)"/>
<path d="M0 0 C0.82638376 2.89234315 1 4.88742431 1 8 C2.65 8 4.3 8 6 8 C3 17 0 26 -3 35 C-3.33 35 -3.66 35 -4 35 C-4.42911957 23.04822535 -3.81454269 11.44362807 0 0 Z " fill="#38393A" transform="translate(37,217)"/>
<path d="M0 0 C17.40695117 0.63298004 35.74574385 10.18019906 49 21 C45.68733553 21 43.96174561 20.44475395 41 19 C40.45988281 18.40058594 39.91976562 17.80117187 39.36328125 17.18359375 C36.13851397 14.20401539 32.5912337 12.6286534 28.625 10.8125 C27.8825 10.45736328 27.14 10.10222656 26.375 9.73632812 C22.24989456 7.81589476 18.57710045 6.486771 14 6 C14.33 6.99 14.66 7.98 15 9 C11.45756548 7.63408831 8.07372071 6.09068516 4.6875 4.375 C3.80449219 3.92898437 2.92148437 3.48296875 2.01171875 3.0234375 C1.34785156 2.68570313 0.68398438 2.34796875 0 2 C0 1.34 0 0.68 0 0 Z " fill="#6C6D70" transform="translate(320,56)"/>
<path d="M0 0 C0.33 0 0.66 0 1 0 C1.18175781 1.12277344 1.36351562 2.24554688 1.55078125 3.40234375 C3.06492375 12.99901659 3.06492375 12.99901659 5.75 22.3125 C6.97848812 25.93653994 7.10235591 26.6258971 6 30 C0.73510441 22.94279953 -3.15631499 15.33188644 -6 7 C-5.67 6.34 -5.34 5.68 -5 5 C-4.67 5.99 -4.34 6.98 -4 8 C-3.01 8 -2.02 8 -1 8 C-0.67 5.36 -0.34 2.72 0 0 Z " fill="#525354" transform="translate(51,322)"/>
<path d="M0 0 C0.33 0 0.66 0 1 0 C1.20413361 5.73842251 1.27141454 10.60539047 -1 16 C-0.01 16 0.98 16 2 16 C2.19335938 15.36191406 2.38671875 14.72382813 2.5859375 14.06640625 C2.84632813 13.24011719 3.10671875 12.41382813 3.375 11.5625 C3.63023437 10.73878906 3.88546875 9.91507813 4.1484375 9.06640625 C5 7 5 7 7 6 C5.37138012 12.18875554 2.84385715 17.30415925 -0.4375 22.75 C-0.82091553 23.38752197 -1.20433105 24.02504395 -1.59936523 24.68188477 C-3.84380047 28.33213828 -6.2418319 31.70779024 -9 35 C-9.66 34.67 -10.32 34.34 -11 34 C-10.54109375 33.05382812 -10.0821875 32.10765625 -9.609375 31.1328125 C-4.83814027 20.96388292 -2.05443762 11.02505652 0 0 Z " fill="#595A5C" transform="translate(285,210)"/>
<path d="M0 0 C-1.70735295 3.41470589 -5.73966001 3.8421219 -9.1875 5 C-9.94353516 5.26039063 -10.69957031 5.52078125 -11.47851562 5.7890625 C-15.64333516 7.21947754 -19.82038289 8.61346035 -24 10 C-22 8 -20 6 -18 4 C-24.02197638 5.20157066 -24.02197638 5.20157066 -29.8125 7.1875 C-32.38704907 8.14376108 -33.43034387 7.75958389 -36 7 C-24.05357714 2.72409455 -12.83267409 -0.4277558 0 0 Z " fill="#5B5C5E" transform="translate(210,252)"/>
<path d="M0 0 C0 0.66 0 1.32 0 2 C-1.98 2.99 -3.96 3.98 -6 5 C-3.03 5.495 -3.03 5.495 0 6 C-6.93966753 10.62644502 -16.78323488 11.49300591 -25 11 C-22.3299989 8.3299989 -19.21345127 7.38206829 -15.75 6.0625 C-11.95753499 4.6058656 -8.27368497 3.1377972 -4.640625 1.30859375 C-2 0 -2 0 0 0 Z " fill="#85878A" transform="translate(334,250)"/>
<path d="M0 0 C-4.7788713 -0.62944213 -9.41955179 -1.52850024 -14.125 -2.5625 C-29.61953396 -5.64594355 -45.48500105 -4.27743104 -61 -2 C-59.32161883 -4.04975304 -58.3663368 -4.91830983 -55.74462891 -5.50292969 C-54.43631104 -5.58655762 -54.43631104 -5.58655762 -53.1015625 -5.671875 C-51.63058105 -5.76758789 -51.63058105 -5.76758789 -50.12988281 -5.86523438 C-8.53547759 -7.65619472 -8.53547759 -7.65619472 0 0 Z " fill="#818386" transform="translate(176,169)"/>
<path d="M0 0 C0.9288501 0.12600586 1.8577002 0.25201172 2.81469727 0.38183594 C4.13038696 0.57567871 4.13038696 0.57567871 5.47265625 0.7734375 C6.260354 0.88864746 7.04805176 1.00385742 7.85961914 1.12255859 C9.9375 1.625 9.9375 1.625 12.9375 3.625 C11.74253906 3.480625 10.54757812 3.33625 9.31640625 3.1875 C7.71096911 2.99972957 6.10549852 2.8122449 4.5 2.625 C3.71689453 2.52960937 2.93378906 2.43421875 2.12695312 2.3359375 C-3.30625619 1.70988869 -8.59324263 1.53740429 -14.0625 1.625 C-13.7325 2.285 -13.4025 2.945 -13.0625 3.625 C-18.63140517 3.14513969 -23.73317568 2.32584819 -29.0625 0.625 C-29.0625 0.295 -29.0625 -0.035 -29.0625 -0.375 C-19.37406211 -2.5279862 -9.70947849 -1.34585194 0 0 Z " fill="#787A7C" transform="translate(266.0625,51.375)"/>
<path d="M0 0 C0 3 0 3 -1.3125 4.60546875 C-1.869375 5.12753906 -2.42625 5.64960938 -3 6.1875 C-3.556875 6.71730469 -4.11375 7.24710938 -4.6875 7.79296875 C-5.120625 8.19128906 -5.55375 8.58960938 -6 9 C-4.35 9 -2.7 9 -1 9 C-4.13091697 12.46089107 -7.41105905 14.58515258 -11.5 16.8125 C-12.6240625 17.43769531 -13.748125 18.06289062 -14.90625 18.70703125 C-18 20 -18 20 -20.40625 19.69921875 C-20.9321875 19.46847656 -21.458125 19.23773438 -22 19 C-21.24976563 18.46632812 -20.49953125 17.93265625 -19.7265625 17.3828125 C-12.47408926 12.10330427 -6.17324513 6.54200092 0 0 Z M-8 10 C-8.33 10.66 -8.66 11.32 -9 12 C-8.34 12 -7.68 12 -7 12 C-7.33 11.34 -7.66 10.68 -8 10 Z " fill="#67686A" transform="translate(309,232)"/>
<path d="M0 0 C5.61 0.33 11.22 0.66 17 1 C16.34 2.32 15.68 3.64 15 5 C12.41638482 5.05407567 9.83390745 5.093707 7.25 5.125 C6.52039063 5.14175781 5.79078125 5.15851563 5.0390625 5.17578125 C1.1955376 5.21072239 -1.74606772 5.17499684 -5 3 C-4.360625 2.87625 -3.72125 2.7525 -3.0625 2.625 C-2.0415625 2.315625 -2.0415625 2.315625 -1 2 C-0.67 1.34 -0.34 0.68 0 0 Z " fill="#050506" transform="translate(242,372)"/>
<path d="M0 0 C2.88866058 3.38992815 4.25762054 6.88822687 5.75 11.0625 C6.19859375 12.29097656 6.6471875 13.51945313 7.109375 14.78515625 C8 18 8 18 7 21 C5.35270289 18.3759159 3.70741379 15.75057863 2.0625 13.125 C1.59392578 12.37863281 1.12535156 11.63226563 0.64257812 10.86328125 C-0.0293457 9.79013672 -0.0293457 9.79013672 -0.71484375 8.6953125 C-1.12855225 8.03547363 -1.54226074 7.37563477 -1.96850586 6.69580078 C-3 5 -3 5 -4 3 C-3.01 2.67 -2.02 2.34 -1 2 C-0.67 1.34 -0.34 0.68 0 0 Z " fill="#464749" transform="translate(228,201)"/>
<path d="M0 0 C0.66 0.33 1.32 0.66 2 1 C0 4 0 4 -1.921875 4.95703125 C-4.37544491 6.18842818 -5.52915903 7.56150958 -7.25 9.6875 C-10.81294942 13.91512111 -14.75498525 17.47167606 -19 21 C-19.66 20.67 -20.32 20.34 -21 20 C-14.61046063 12.4164558 -7.7370793 6.15300722 0 0 Z " fill="#4B4B4D" transform="translate(99,118)"/>
<path d="M0 0 C0.66644531 0.43570312 1.33289063 0.87140625 2.01953125 1.3203125 C8.5287377 5.52626128 15.14755192 9.38158931 22 13 C22 13.66 22 14.32 22 15 C15.68878497 13.9007105 9.93661416 12.41862058 4 10 C4.639375 9.855625 5.27875 9.71125 5.9375 9.5625 C7.97545146 9.18992819 7.97545146 9.18992819 9 8 C6.525 7.01 6.525 7.01 4 6 C4 5.34 4 4.68 4 4 C3.01 4 2.02 4 1 4 C0.67 2.68 0.34 1.36 0 0 Z " fill="#666769" transform="translate(171,426)"/>
<path d="M0 0 C0.66 0.33 1.32 0.66 2 1 C-14.92857143 19.64285714 -14.92857143 19.64285714 -19 21 C-15.27555181 12.47297388 -7.05431383 5.8049122 0 0 Z " fill="#454648" transform="translate(151,272)"/>
<path d="M0 0 C0.66 0.33 1.32 0.66 2 1 C-1.40336315 6.47858458 -5.15333795 11.58957039 -9.25 16.5625 C-9.68618652 17.09907227 -10.12237305 17.63564453 -10.57177734 18.18847656 C-11.66774345 19.49954678 -12.82910168 20.75539405 -14 22 C-14.66 22 -15.32 22 -16 22 C-14.63854309 18.09623069 -12.87415934 15.30857315 -10.25 12.125 C-9.54359375 11.26390625 -8.8371875 10.4028125 -8.109375 9.515625 C-5.43085376 6.32124041 -2.73548336 3.14580587 0 0 Z " fill="#525355" transform="translate(70,214)"/>
<path d="M0 0 C3.77548716 1.33882523 6.61387689 3.01635888 9.75 5.5 C10.52859375 6.1084375 11.3071875 6.716875 12.109375 7.34375 C14 9 14 9 15 11 C10.36086779 9.50396977 5.8360852 7.80764433 1.3125 6 C0.64927734 5.73960937 -0.01394531 5.47921875 -0.69726562 5.2109375 C-3.70710734 4.01063809 -6.29233119 2.80511254 -9 1 C-7.700625 1.020625 -6.40125 1.04125 -5.0625 1.0625 C-3.70834367 1.08399454 -2.35243917 1.07148199 -1 1 C-0.67 0.67 -0.34 0.34 0 0 Z " fill="#8A8C8F" transform="translate(198,206)"/>
<path d="M0 0 C0.99 0 1.98 0 3 0 C3.66 1.65 4.32 3.3 5 5 C3.68 4.34 2.36 3.68 1 3 C1.33 3.66 1.66 4.32 2 5 C2.08949417 6.45037107 2.1175844 7.90478629 2.11352539 9.35791016 C2.11344986 10.25869293 2.11337433 11.15947571 2.11329651 12.08755493 C2.10813522 13.06155243 2.10297394 14.03554993 2.09765625 15.0390625 C2.0962413 16.03505463 2.09482635 17.03104675 2.09336853 18.05722046 C2.08775936 21.24651053 2.0752053 24.43573106 2.0625 27.625 C2.05748618 29.78385315 2.05292307 31.94270741 2.04882812 34.1015625 C2.03778695 39.4010655 2.02103988 44.70052778 2 50 C1.67 50 1.34 50 1 50 C0.67 33.5 0.34 17 0 0 Z " fill="#8F9194" transform="translate(338,327)"/>
<path d="M0 0 C0.66 0.33 1.32 0.66 2 1 C-7.41002278 11.55808656 -7.41002278 11.55808656 -12 16 C-12.99 15.67 -13.98 15.34 -15 15 C-10.28109462 9.59947495 -5.69641143 4.38185495 0 0 Z " fill="#4D4E4F" transform="translate(73,163)"/>
<path d="M0 0 C4.3177458 0.50797009 8.03302114 1.19682779 12 3 C11.34 3.66 10.68 4.32 10 5 C10.32041397 7.60280568 10.32041397 7.60280568 11 10 C9.65686601 9.35330586 8.32608822 8.68096422 7 8 C6.13375 7.566875 5.2675 7.13375 4.375 6.6875 C1.5940664 4.71157349 0.95745218 3.22052097 0 0 Z " fill="#2F2F30" transform="translate(333,61)"/>
<path d="M0 0 C0.33 0.66 0.66 1.32 1 2 C1.99 2.33 2.98 2.66 4 3 C0.7 6.96 -2.6 10.92 -6 15 C-7 12 -7 12 -5.56640625 9.08203125 C-4.90511719 8.00308594 -4.24382812 6.92414063 -3.5625 5.8125 C-2.90378906 4.72582031 -2.24507813 3.63914063 -1.56640625 2.51953125 C-1.04949219 1.68808594 -0.53257813 0.85664063 0 0 Z " fill="#48494A" transform="translate(70,149)"/>
<path d="M0 0 C0.66 0.33 1.32 0.66 2 1 C-9.33712984 13.85421412 -9.33712984 13.85421412 -16 18 C-12.59573688 10.5272273 -6.25350037 5.10489826 0 0 Z " fill="#505153" transform="translate(105,249)"/>
<path d="M0 0 C0 0.66 0 1.32 0 2 C-1.794375 2.2784375 -1.794375 2.2784375 -3.625 2.5625 C-8.90563156 3.68746761 -13.44962849 6.08951961 -18.12548828 8.69946289 C-22.50269968 11.06025448 -22.50269968 11.06025448 -25.41796875 10.70703125 C-25.94003906 10.47371094 -26.46210937 10.24039063 -27 10 C-7.73972603 0 -7.73972603 0 0 0 Z " fill="#717275" transform="translate(146,230)"/>
<path d="M0 0 C1.70884005 1.62339805 3.37446717 3.29319053 5 5 C5 5.66 5 6.32 5 7 C3.68 7.33 2.36 7.66 1 8 C1 9.65 1 11.3 1 13 C-1.66735273 10.51047079 -3.55746343 8.36591866 -5 5 C-3.68 4.67 -2.36 4.34 -1 4 C-0.67 2.68 -0.34 1.36 0 0 Z " fill="#4B4C4E" transform="translate(490,325)"/>
<path d="M0 0 C0.33 0 0.66 0 1 0 C1 3.3 1 6.6 1 10 C1.66 10 2.32 10 3 10 C2.71682074 11.60568666 2.42312209 13.20952047 2.125 14.8125 C1.96257813 15.70582031 1.80015625 16.59914062 1.6328125 17.51953125 C1 20 1 20 -1 23 C-1.0272367 20.47909222 -1.04695207 17.95848543 -1.0625 15.4375 C-1.07087891 14.73302734 -1.07925781 14.02855469 -1.08789062 13.30273438 C-1.10882603 8.75975202 -0.74800682 4.48215108 0 0 Z " fill="#626365" transform="translate(34,229)"/>
<path d="M0 0 C0 0.66 0 1.32 0 2 C0.78375 2.103125 1.5675 2.20625 2.375 2.3125 C5 3 5 3 7 6 C1.33557626 5.63495936 -3.00703705 4.9445679 -8 2 C-4.91190305 0.23537317 -3.76687864 0 0 0 Z " fill="#444546" transform="translate(175,430)"/>
<path d="M0 0 C17.85649203 -0.55353075 17.85649203 -0.55353075 26 3 C26 3.99 26 4.98 26 6 C22 4.66666667 18 3.33333333 14 2 C11.60745424 1.77439324 9.21071877 1.59151405 6.8125 1.4375 C5.54019531 1.35371094 4.26789063 1.26992188 2.95703125 1.18359375 C1.98121094 1.12300781 1.00539062 1.06242187 0 1 C0 0.67 0 0.34 0 0 Z " fill="#7D7E81" transform="translate(244,323)"/>
<path d="M0 0 C0 0.66 0 1.32 0 2 C-1.98 2.99 -3.96 3.98 -6 5 C-3.03 5.495 -3.03 5.495 0 6 C-3.31371 8.20914 -4.3446021 8.22481553 -8.1875 8.125 C-9.08855469 8.10695313 -9.98960937 8.08890625 -10.91796875 8.0703125 C-11.60503906 8.04710937 -12.29210937 8.02390625 -13 8 C-9.4918251 4.18228025 -5.53544278 0 0 0 Z " fill="#535456" transform="translate(334,250)"/>
<path d="M0 0 C0.78375 0.04125 1.5675 0.0825 2.375 0.125 C2.375 1.775 2.375 3.425 2.375 5.125 C-2.245 5.125 -6.865 5.125 -11.625 5.125 C-11.625 4.795 -11.625 4.465 -11.625 4.125 C-10.51125 3.83625 -9.3975 3.5475 -8.25 3.25 C-4.76833519 2.16948333 -3.46064564 0.16479265 0 0 Z " fill="#0E0F0F" transform="translate(315.625,343.875)"/>
<path d="M0 0 C-0.33 0.66 -0.66 1.32 -1 2 C-8.34624369 4.28817426 -8.34624369 4.28817426 -13 3 C-14.41534778 2.93543121 -15.83337689 2.91388961 -17.25 2.9375 C-18.4875 2.958125 -19.725 2.97875 -21 3 C-21 2.67 -21 2.34 -21 2 C-13.90294338 0.65504172 -7.2274605 -0.24091535 0 0 Z " fill="#87898C" transform="translate(210,252)"/>
<path d="M0 0 C1.73694677 2.60542016 2.69100448 4.58342775 3.6875 7.5 C3.95949219 8.2734375 4.23148438 9.046875 4.51171875 9.84375 C5 12 5 12 4 15 C2.02 11.37 0.04 7.74 -2 4 C-1.34 4 -0.68 4 0 4 C0 2.68 0 1.36 0 0 Z " fill="#737477" transform="translate(231,207)"/>
<path d="M0 0 C1.97986082 0.11347619 3.95891598 0.2410935 5.9375 0.375 C7.03964844 0.44460937 8.14179688 0.51421875 9.27734375 0.5859375 C10.62505859 0.79089844 10.62505859 0.79089844 12 1 C12.33 1.66 12.66 2.32 13 3 C7.61509359 3.91657981 2.45769811 4.11138159 -3 4 C-3 3.67 -3 3.34 -3 3 C-1.35 2.67 0.3 2.34 2 2 C1.34 1.34 0.68 0.68 0 0 Z " fill="#8D8F91" transform="translate(185,227)"/>
<path d="M0 0 C0 0.99 0 1.98 0 3 C0.66 3.33 1.32 3.66 2 4 C-3.27315333 3.5547115 -8.01770224 2.91626837 -13 1 C-11.66961551 0.6550855 -10.33542939 0.32483418 -9 0 C-8.175 -0.20625 -7.35 -0.4125 -6.5 -0.625 C-3.95475041 -1.00678744 -2.41657419 -0.80552473 0 0 Z " fill="#5A5B5D" transform="translate(202,207)"/>
<path d="M0 0 C1.31896465 0.92838287 2.62998689 1.86805732 3.9375 2.8125 C4.66839844 3.33457031 5.39929688 3.85664063 6.15234375 4.39453125 C8 6 8 6 9 9 C4.38486888 7.68139111 0.90102388 5.78644563 -3 3 C-2.01 2.67 -1.02 2.34 0 2 C0 1.34 0 0.68 0 0 Z " fill="#76777A" transform="translate(120,413)"/>
<path d="M0 0 C1.32 0.33 2.64 0.66 4 1 C2.71520959 2.50589388 1.42195918 4.00457375 0.125 5.5 C-0.95394531 6.75296875 -0.95394531 6.75296875 -2.0546875 8.03125 C-2.69664063 8.6809375 -3.33859375 9.330625 -4 10 C-4.66 10 -5.32 10 -6 10 C-4.6302836 6.00499382 -2.74277578 3.19990508 0 0 Z " fill="#4B4B4D" transform="translate(60,226)"/>
<path d="M0 0 C0.66 0.33 1.32 0.66 2 1 C2 1.99 2 2.98 2 4 C-3.5 7.125 -3.5 7.125 -8 6 C-5.36 4.02 -2.72 2.04 0 0 Z " fill="#87888B" transform="translate(295,245)"/>
<path d="M0 0 C2.64 0 5.28 0 8 0 C7.42655063 2.86724686 7.1385485 3.8614515 5 6 C5 4.68 5 3.36 5 2 C2.69 2.66 0.38 3.32 -2 4 C-1.34 2.68 -0.68 1.36 0 0 Z " fill="#595A5C" transform="translate(519,318)"/>
<path d="M0 0 C5.10880829 -0.61658031 5.10880829 -0.61658031 8 0 C10.44303403 2.03926899 12.2277425 4.36846614 14 7 C13.67 7.66 13.34 8.32 13 9 C12.01 8.67 11.02 8.34 10 8 C9.38125 6.515 9.38125 6.515 8.75 5 C7.88375 3.515 7.88375 3.515 7 2 C3.40614946 1.02126462 3.40614946 1.02126462 0 1 C0 0.67 0 0.34 0 0 Z " fill="#6D6E70" transform="translate(333,318)"/>
<path d="M0 0 C0.66 0.99 1.32 1.98 2 3 C0.5361389 7.39158329 -1.97831338 7.87947433 -6 10 C-4.34832443 6.4213696 -2.21713508 3.25179812 0 0 Z " fill="#4E4F50" transform="translate(370,213)"/>
<path d="M0 0 C0.556875 0.391875 1.11375 0.78375 1.6875 1.1875 C-0.81498865 2.85582577 -2.72399187 3.81131674 -5.5 4.8125 C-6.21542969 5.07289062 -6.93085938 5.33328125 -7.66796875 5.6015625 C-8.21066406 5.79492188 -8.75335938 5.98828125 -9.3125 6.1875 C-8.2566902 3.40400144 -7.30731748 2.18340854 -4.9375 0.3125 C-2.3125 -0.8125 -2.3125 -0.8125 0 0 Z " fill="#828386" transform="translate(142.3125,91.8125)"/>
<path d="M0 0 C1.41623216 -0.05447047 2.83308191 -0.09300508 4.25 -0.125 C5.03890625 -0.14820313 5.8278125 -0.17140625 6.640625 -0.1953125 C9.20731941 0.0171622 10.7916067 0.71345895 13 2 C13 2.66 13 3.32 13 4 C11.39431334 3.71682074 9.79047953 3.42312209 8.1875 3.125 C7.29417969 2.96257812 6.40085938 2.80015625 5.48046875 2.6328125 C3 2 3 2 0 0 Z " fill="#939598" transform="translate(180,437)"/>
<path d="M0 0 C0.66 0.99 1.32 1.98 2 3 C2.66 3.33 3.32 3.66 4 4 C2.35 5.98 0.7 7.96 -1 10 C-2.46726798 6.18510326 -1.43336419 3.70988378 0 0 Z " fill="#3E3F40" transform="translate(73,294)"/>
<path d="M0 0 C0.33 0.66 0.66 1.32 1 2 C3.64 1.34 6.28 0.68 9 0 C8.34 1.32 7.68 2.64 7 4 C4.36 4 1.72 4 -1 4 C-0.67 2.68 -0.34 1.36 0 0 Z " fill="#7E8083" transform="translate(476,374)"/>
<path d="M0 0 C1.65 0.33 3.3 0.66 5 1 C4.34 2.32 3.68 3.64 3 5 C0.36 4.67 -2.28 4.34 -5 4 C-4.360625 3.71125 -3.72125 3.4225 -3.0625 3.125 C-0.84793921 2.17176549 -0.84793921 2.17176549 0 0 Z " fill="#121212" transform="translate(242,372)"/>
<path d="M0 0 C2.40034102 3.60051153 4.32187705 6.96144535 3.625 11.375 C3.41875 11.91125 3.2125 12.4475 3 13 C0.95204577 11.0373772 0.05023362 9.5722693 -0.19921875 6.73046875 C-0.18858877 4.48045617 -0.12958525 2.24614438 0 0 Z " fill="#929497" transform="translate(54,339)"/>
<path d="M0 0 C0.66 0.33 1.32 0.66 2 1 C0.35 2.98 -1.3 4.96 -3 7 C-4.32 6.67 -5.64 6.34 -7 6 C-4.69 4.02 -2.38 2.04 0 0 Z " fill="#4D4E50" transform="translate(79,207)"/>
<path d="M0 0 C0.66 1.32 1.32 2.64 2 4 C0.35 5.98 -1.3 7.96 -3 10 C-4 7 -4 7 -3.22265625 5.17578125 C-2.1484375 3.45052083 -1.07421875 1.72526042 0 0 Z " fill="#8A8C8F" transform="translate(67,154)"/>
<path d="M0 0 C2.97 0 5.94 0 9 0 C9 0.99 9 1.98 9 3 C7.02 2.34 5.04 1.68 3 1 C3.33 2.65 3.66 4.3 4 6 C2.62437146 4.71034824 1.29233607 3.37310707 0 2 C0 1.34 0 0.68 0 0 Z " fill="#707174" transform="translate(416,318)"/>
<path d="M0 0 C1.93681161 -0.08107583 3.8745934 -0.13922475 5.8125 -0.1875 C6.89144531 -0.22230469 7.97039062 -0.25710937 9.08203125 -0.29296875 C12 0 12 0 13.88671875 1.51171875 C14.25410156 2.00285156 14.62148437 2.49398437 15 3 C9.99109914 2.38487182 4.99367864 1.7282448 0 1 C0 0.67 0 0.34 0 0 Z " fill="#757779" transform="translate(174,204)"/>
<path d="M0 0 C2.58347022 1.29173511 2.94936092 2.34086037 4 5 C4.1953125 7.359375 4.1953125 7.359375 4.125 9.75 C4.10695313 10.54921875 4.08890625 11.3484375 4.0703125 12.171875 C4.03550781 13.07679688 4.03550781 13.07679688 4 14 C2.30566082 10.9530371 1.50532888 8.17178534 0.875 4.75 C0.70742187 3.85796875 0.53984375 2.9659375 0.3671875 2.046875 C0.18542969 1.03367188 0.18542969 1.03367188 0 0 Z " fill="#67686A" transform="translate(253,189)"/>
<path d="M0 0 C0.66 0.33 1.32 0.66 2 1 C1.67 1.99 1.34 2.98 1 4 C-2.375 4.1875 -2.375 4.1875 -6 4 C-6.66 3.01 -7.32 2.02 -8 1 C-5.36 1.33 -2.72 1.66 0 2 C0 1.34 0 0.68 0 0 Z " fill="#727476" transform="translate(528,374)"/>
<path d="M0 0 C0.99 0.33 1.98 0.66 3 1 C1.62845496 3.95409701 0.01136276 6.44008376 -2 9 C-2.66 8.67 -3.32 8.34 -4 8 C-2.68 5.36 -1.36 2.72 0 0 Z " fill="#898A8D" transform="translate(278,236)"/>
<path d="M0 0 C0.33 0.66 0.66 1.32 1 2 C3.31 2 5.62 2 8 2 C7.67 2.66 7.34 3.32 7 4 C4.69 4 2.38 4 0 4 C0 2.68 0 1.36 0 0 Z " fill="#797B7D" transform="translate(415,374)"/>
<path d="M0 0 C2.875 0.3125 2.875 0.3125 6 1 C6.66 1.99 7.32 2.98 8 4 C5.69 3.67 3.38 3.34 1 3 C0.67 2.01 0.34 1.02 0 0 Z " fill="#0D0D0D" transform="translate(174,432)"/>
<path d="M0 0 C0.66 0.33 1.32 0.66 2 1 C-0.75 3.0625 -0.75 3.0625 -4 5 C-6.203125 4.62109375 -6.203125 4.62109375 -8 4 C-6.71349294 3.30289269 -5.42059335 2.61757124 -4.125 1.9375 C-3.40570313 1.55464844 -2.68640625 1.17179687 -1.9453125 0.77734375 C-1.30335938 0.52082031 -0.66140625 0.26429688 0 0 Z " fill="#6F7073" transform="translate(172,260)"/>
<path d="M0 0 C2.1640625 -0.29296875 2.1640625 -0.29296875 4.625 -0.1875 C5.44226563 -0.16042969 6.25953125 -0.13335937 7.1015625 -0.10546875 C8.04128906 -0.05326172 8.04128906 -0.05326172 9 0 C5.36383344 1.9789756 2.11574371 2.5251065 -2 3 C-1.34 2.01 -0.68 1.02 0 0 Z " fill="#76787A" transform="translate(129,205)"/>
<path d="M0 0 C-0.75 1.9375 -0.75 1.9375 -2 4 C-4 4.8125 -4 4.8125 -6 5 C-6.66 4.67 -7.32 4.34 -8 4 C-2.25 0 -2.25 0 0 0 Z " fill="#5B5C5E" transform="translate(89,202)"/>
<path d="M0 0 C0.66 0.33 1.32 0.66 2 1 C-0.12055614 4.1808342 -1.63050557 5.31525278 -5 7 C-5.66 6.67 -6.32 6.34 -7 6 C-4.69 4.02 -2.38 2.04 0 0 Z " fill="#767779" transform="translate(99,118)"/>
<path d="M0 0 C1.258125 0.12375 2.51625 0.2475 3.8125 0.375 C4.87404297 0.47941406 4.87404297 0.47941406 5.95703125 0.5859375 C8 1 8 1 11 3 C3.49230769 3.36923077 3.49230769 3.36923077 1 1.5 C0.67 1.005 0.34 0.51 0 0 Z " fill="#77787B" transform="translate(222,77)"/>
<path d="M0 0 C2.97 0.33 5.94 0.66 9 1 C7.515 2.485 7.515 2.485 6 4 C4.02 3.34 2.04 2.68 0 2 C0 1.34 0 0.68 0 0 Z " fill="#949699" transform="translate(320,56)"/>
</svg>
